<svg width="73" height="85" viewBox="0 0 83 95" fill="none" xmlns="http://www.w3.org/2000/svg">
<rect width="73" height="85" fill="transparent"/>
<g id="&#240;&#159;&#166;&#134; icon &#34;trash&#34;">
<path id="Vector" d="M35.5629 0C29.043 0 23.7086 5.33443 23.7086 11.8543H11.8543C5.33443 11.8543 0 17.1887 0 23.7086H82.98C82.98 17.1887 77.6456 11.8543 71.1257 11.8543H59.2714C59.2714 5.33443 53.937 0 47.4171 0H35.5629ZM11.8543 35.5629V92.582C11.8543 93.8859 12.8026 94.8343 14.1066 94.8343H68.9919C70.2959 94.8343 71.2443 93.8859 71.2443 92.582V35.5629H59.39V77.0529C59.39 80.3721 56.782 82.98 53.4628 82.98C50.1436 82.98 47.5357 80.3721 47.5357 77.0529V35.5629H35.6814V77.0529C35.6814 80.3721 33.0735 82.98 29.7543 82.98C26.4351 82.98 23.8271 80.3721 23.8271 77.0529V35.5629H11.9728H11.8543Z" fill="black"/>
</g>
</svg>
